<?xml version="1.0" encoding="utf-8"?>
<!-- Generator: Adobe Illustrator 17.0.2, SVG Export Plug-In . SVG Version: 6.00 Build 0)  -->
<!DOCTYPE svg PUBLIC "-//W3C//DTD SVG 1.1//EN" "http://www.w3.org/Graphics/SVG/1.1/DTD/svg11.dtd">
<svg version="1.1" id="Layer_1" xmlns="http://www.w3.org/2000/svg" xmlns:xlink="http://www.w3.org/1999/xlink" x="0px" y="0px"
	 width="595.28px" height="841.89px" viewBox="0 0 595.28 841.89" enable-background="new 0 0 595.28 841.89" xml:space="preserve">
<g>
	<path fill="#6C9DB7" d="M530.088,151.305H65.191C44.737,151.305,28,168.041,28,188.496v464.898
		c0,20.454,16.737,37.191,37.191,37.191h223.151V504.626h-74.384v-92.98h74.384v-55.788c0-58.577,44.63-106.926,102.276-111.575
		h92.98v0.001v92.98h-83.681c-10.227,0-18.596,8.368-18.596,18.596v55.788h92.98v92.98h-92.979v185.957h148.767
		c20.454,0,37.191-16.737,37.19-37.192V188.496C567.279,168.042,550.543,151.305,530.088,151.305z"/>
</g>
</svg>
