<?xml version="1.0" encoding="utf-8"?>
<!-- Generator: Adobe Illustrator 17.0.2, SVG Export Plug-In . SVG Version: 6.00 Build 0)  -->
<!DOCTYPE svg PUBLIC "-//W3C//DTD SVG 1.1//EN" "http://www.w3.org/Graphics/SVG/1.1/DTD/svg11.dtd">
<svg version="1.1" id="Layer_1" xmlns="http://www.w3.org/2000/svg" xmlns:xlink="http://www.w3.org/1999/xlink" x="0px" y="0px"
	 width="595.28px" height="841.89px" viewBox="0 0 595.28 841.89" enable-background="new 0 0 595.28 841.89" xml:space="preserve">
<path fill="#6C9DB7" d="M585.813,230.966c-13.226,5.865-26.956,10.492-41.044,13.842c15.524-14.752,27.195-33.203,33.78-53.797l0,0
	c1.88-5.879-4.506-10.964-9.815-7.816l0,0c-19.599,11.625-40.71,20.347-62.749,25.924c-1.279,0.324-2.598,0.488-3.922,0.488
	c-4.014,0-7.917-1.491-10.987-4.196c-23.448-20.666-53.606-32.047-84.916-32.047c-13.548,0-27.227,2.112-40.658,6.277
	c-41.613,12.907-73.721,47.233-83.795,89.583c-3.779,15.885-4.803,31.785-3.043,47.256c0.202,1.778-0.639,3.019-1.157,3.601
	c-0.91,1.02-2.2,1.605-3.54,1.605c-0.149,0-0.303-0.007-0.456-0.022c-91.09-8.463-173.231-52.347-231.292-123.568l0,0
	c-2.961-3.633-8.638-3.187-10.998,0.861l0,0c-11.37,19.506-17.378,41.816-17.378,64.518c0,34.792,13.978,67.579,38.258,91.482
	c-10.21-2.421-20.093-6.234-29.272-11.332l0,0c-4.441-2.467-9.905,0.704-9.968,5.784l0,0
	c-0.636,51.686,29.625,97.676,74.957,118.385c-0.913,0.022-1.826,0.032-2.74,0.032c-7.186,0-14.461-0.694-21.622-2.062l0,0
	c-5.001-0.955-9.203,3.789-7.65,8.638l0,0c14.714,45.937,54.266,79.797,101.598,87.485c-39.282,26.37-85.028,40.279-132.639,40.279
	l-14.843-0.009c-4.573,0-8.441,2.981-9.607,7.411c-1.148,4.363,0.967,8.965,4.866,11.233c53.651,31.223,114.847,47.725,177,47.725
	c54.404,0,105.294-10.797,151.259-32.088c42.137-19.519,79.373-47.422,110.673-82.932c29.158-33.079,51.958-71.266,67.767-113.497
	c15.069-40.256,23.034-83.21,23.034-124.22v-1.953c-0.001-6.585,2.977-12.781,8.173-16.998
	c19.717-16.008,36.886-34.853,51.03-56.009l0,0C597.847,235.242,591.958,228.241,585.813,230.966L585.813,230.966z"/>
</svg>
