<?xml version="1.0" encoding="utf-8"?>
<!-- Generator: Adobe Illustrator 17.0.2, SVG Export Plug-In . SVG Version: 6.00 Build 0)  -->
<!DOCTYPE svg PUBLIC "-//W3C//DTD SVG 1.1//EN" "http://www.w3.org/Graphics/SVG/1.1/DTD/svg11.dtd">
<svg version="1.1" id="Layer_1" xmlns="http://www.w3.org/2000/svg" xmlns:xlink="http://www.w3.org/1999/xlink" x="0px" y="0px"
	 width="595.28px" height="841.89px" viewBox="0 0 595.28 841.89" enable-background="new 0 0 595.28 841.89" xml:space="preserve">
<g>
	<path id="YouTube" fill="#6C9DB7" d="M448.893,542.419h-28.8l0.134-16.729c0-7.435,6.105-13.517,13.563-13.517h1.837
		c7.475,0,13.598,6.082,13.598,13.517L448.893,542.419z M340.866,506.569c-7.306,0-13.283,4.91-13.283,10.922v81.362
		c0,6,5.977,10.898,13.283,10.898c7.336,0,13.318-4.898,13.318-10.898v-81.362C354.184,511.473,348.202,506.569,340.866,506.569z
		 M516.307,461.057v154.781c0,37.127-32.194,67.507-71.548,67.507H150.527c-39.366,0-71.554-30.38-71.554-67.507V461.057
		c0-37.127,32.188-67.513,71.554-67.513h294.232C484.113,393.545,516.307,423.931,516.307,461.057z M170.154,632.643L170.131,469.6
		l36.474,0.012v-24.158l-97.228-0.146v23.75l30.351,0.087v163.499H170.154z M279.488,493.886h-30.409v87.064
		c0,12.595,0.764,18.893-0.047,21.115c-2.472,6.752-13.587,13.925-17.919,0.729c-0.735-2.309-0.087-9.277-0.099-21.243
		l-0.122-87.665h-30.24l0.093,86.289c0.023,13.225-0.297,23.085,0.105,27.575c0.741,7.913,0.478,17.138,7.82,22.409
		c13.68,9.855,39.902-1.469,46.462-15.557l-0.058,17.977l24.421,0.029L279.488,493.886L279.488,493.886z M376.768,593.587
		l-0.064-72.463c-0.023-27.616-20.683-44.153-48.725-21.808l0.122-53.874l-30.374,0.047l-0.146,185.954l24.98-0.362l2.274-11.581
		C356.75,648.778,376.815,628.713,376.768,593.587z M471.938,583.983l-22.8,0.122c-0.012,0.904-0.047,1.948-0.058,3.085v12.723
		c0,6.811-5.627,12.356-12.461,12.356h-4.467c-6.846,0-12.473-5.545-12.473-12.356v-1.411v-13.995v-18.059h52.212v-19.651
		c0-14.362-0.367-28.718-1.557-36.928c-3.738-25.972-40.194-30.094-58.609-16.799c-5.779,4.152-10.193,9.709-12.758,17.173
		c-2.589,7.47-3.878,17.674-3.878,30.637v43.209C395.101,655.915,482.346,645.763,471.938,583.983z M354.977,349.409
		c1.569,3.814,4.006,6.904,7.312,9.236c3.265,2.297,7.441,3.452,12.444,3.452c4.385,0,8.268-1.184,11.651-3.627
		c3.37-2.432,6.21-6.064,8.531-10.91l-0.577,11.93h33.896V215.34H401.55v112.191c0,6.076-5.003,11.05-11.12,11.05
		c-6.082,0-11.102-4.974-11.102-11.05V215.34h-27.849v97.228c0,12.385,0.227,20.642,0.595,24.829
		C352.452,341.554,353.409,345.543,354.977,349.409z M252.256,267.995c0-13.837,1.155-24.642,3.446-32.433
		c2.309-7.761,6.455-14,12.461-18.706c5.989-4.729,13.656-7.096,22.98-7.096c7.843,0,14.56,1.539,20.17,4.554
		c5.639,3.032,9.989,6.968,13.003,11.826c3.073,4.875,5.161,9.884,6.274,15.009c1.137,5.196,1.697,13.033,1.697,23.604v36.456
		c0,13.371-0.536,23.208-1.58,29.453c-1.032,6.263-3.248,12.07-6.682,17.517c-3.382,5.388-7.75,9.417-13.044,11.989
		c-5.353,2.595-11.476,3.866-18.391,3.866c-7.726,0-14.234-1.067-19.598-3.295c-5.382-2.216-9.54-5.557-12.502-9.995
		c-2.991-4.443-5.096-9.855-6.368-16.164c-1.277-6.303-1.883-15.785-1.883-28.421L252.256,267.995L252.256,267.995z
		 M278.806,325.256c0,8.164,6.076,14.829,13.476,14.829c7.405,0,13.458-6.665,13.458-14.829v-76.737
		c0-8.152-6.053-14.817-13.458-14.817c-7.4,0-13.476,6.665-13.476,14.817V325.256z M184.995,364.004h31.978l0.035-110.558
		l37.786-94.709h-34.975l-20.088,70.347l-20.374-70.539h-34.613l40.2,94.954L184.995,364.004z"/>
</g>
</svg>
